<?xml version="1.0" encoding="UTF-8"?>
<svg id="Calque_1" data-name="Calque 1" xmlns="http://www.w3.org/2000/svg" viewBox="0 0 1050 432.41">
  <defs>
    <style>
      .cls-1 {
        fill: #fff;
      }

      .cls-2 {
        fill: #8c6239;
      }
    </style>
  </defs>
  <path class="cls-1" d="M424.12,329.96c-5.59,5.62-4.88,12.68.94,18.51,12.43,12.45,11.2,23.81,11.55,30.89,1.15,22.78-11.78,29.01-13.14,41.2-.87,7.85,7.05,13.85,14.04,11.23,13.94-5.23,23.65-24.7,23.51-52.06-.15-27.51-7.68-35.85-19.2-47.58-7.16-7.3-16.01-3.87-17.69-2.18h0Z"/>
  <circle class="cls-1" cx="925" cy="305.03" r="25"/>
  <circle class="cls-1" cx="1025" cy="155.03" r="25"/>
  <circle class="cls-1" cx="825" cy="155.03" r="25"/>
  <circle class="cls-1" cx="125" cy="305.03" r="25"/>
  <circle class="cls-1" cx="225" cy="155.03" r="25"/>
  <circle class="cls-1" cx="25" cy="155.03" r="25"/>
  <g id="Calque_2" data-name="Calque 2">
    <ellipse class="cls-2" cx="536.75" cy="78.46" rx="146.27" ry="78.46"/>
  </g>
  <path class="cls-1" d="M445.17,369.51c32.51-16.56,71.15-24.85,89.9-25.85,17.55-.93,63.97,5.86,89.05,20.73,5.25,3.12,7.51,11.3,4.91,15.99-3.17,5.72-13.88,3.44-16.19,2.34-27-12.7-43.45-16.67-76.16-16.19-32.73.47-63.89,12.57-86.45,23.68-2.32,1.15-8.26-.54-10.45-7.27-2.17-6.7,4.62-12.85,5.4-13.43h0Z"/>
</svg>